<svg xmlns="http://www.w3.org/2000/svg" viewBox="0 0 24 24" fill="none">
  <path d="M12 2C6.47715 2 2 6.47715 2 12C2 17.5228 6.47715 22 12 22C17.5228 22 22 17.5228 22 12C22 6.47715 17.5228 2 12 2Z" fill="#1DB954"/>
  <path d="M16.5 8.5C13.5 7 9.5 7 7 8C6.5 8.5 6.5 9 7 9.5C7.5 10 8 10 8.5 9.5C10.5 8.5 13.5 8.5 16 9.5C16.5 10 17 10 17.5 9.5C18 9 18 8.5 17.5 8C17 7.5 16.5 8.5 16.5 8.5Z" fill="white"/>
  <path d="M15.5 11.5C13 10.5 10 10.5 8 11C7.5 11.5 7.5 12 8 12.5C8.5 13 9 13 9.5 12.5C11 12 13.5 12 15 12.5C15.5 13 16 13 16.5 12.5C17 12 17 11.5 16.5 11C16 10.5 15.5 11.5 15.5 11.5Z" fill="white"/>
  <path d="M14.5 14.5C12.5 14 10.5 14 9 14.5C8.5 15 8.5 15.5 9 16C9.5 16.5 10 16.5 10.5 16C11.5 15.5 13 15.5 14 16C14.5 16.5 15 16.5 15.5 16C16 15.5 16 15 15.5 14.5C15 14 14.5 14.5 14.5 14.5Z" fill="white"/>
</svg> 